{
  "accessors": [
    {
      "bufferView": 2,
      "componentType": 5126,
      "count": 914,
      "max": [
        1.2230499982833862,
        0.39302000403404236,
        2.3020699024200439
      ],
      "min": [
        -1.8395999670028687,
        -0.39302000403404236,
        -0
      ],
      "type": "VEC3"
    },
    {
      "bufferView": 2,
      "byteOffset": 10968,
      "componentType": 5126,
      "count": 914,
      "max": [
        0.99812144041061401,
        0.99994784593582153,
        0.99675047397613525
      ],
      "min": [
        -0.99906033277511597,
        -0.99994784593582153,
        -1
      ],
      "type": "VEC3"
    },
    {
      "bufferView": 3,
      "componentType": 5126,
      "count": 914,
      "max": [
        0.99304842948913574,
        1,
        0.95452231168746948,
        1
      ],
      "min": [
        -0.99752658605575562,
        -1,
        -0.93695163726806641,
        -1
      ],
      "type": "VEC4"
    },
    {
      "bufferView": 1,
      "componentType": 5126,
      "count": 914,
      "max": [
        0.83875000476837158,
        0.90561997890472412
      ],
      "min": [
        0.057179998606443405,
        0.13875000178813934
      ],
      "type": "VEC2"
    },
    {
      "bufferView": 0,
      "componentType": 5125,
      "count": 1278,
      "max": [
        913
      ],
      "min": [
        0
      ],
      "type": "SCALAR"
    }
  ],
  "asset": {
    "extras": {
      "author": "VitSh (https://sketchfab.com/VitSh)",
      "license": "CC-BY-4.0 (http://creativecommons.org/licenses/by/4.0/)",
      "source": "https://sketchfab.com/models/1474941987a043a8a9d0097fea04391d",
      "title": "Horse 01"
    },
    "generator": "Sketchfab-3.18.5",
    "version": "2.0"
  },
  "bufferViews": [
    {
      "buffer": 0,
      "byteLength": 5112,
      "byteOffset": 0,
      "name": "floatBufferViews",
      "target": 34963
    },
    {
      "buffer": 0,
      "byteLength": 7312,
      "byteOffset": 5112,
      "byteStride": 8,
      "name": "floatBufferViews",
      "target": 34962
    },
    {
      "buffer": 0,
      "byteLength": 21936,
      "byteOffset": 12424,
      "byteStride": 12,
      "name": "floatBufferViews",
      "target": 34962
    },
    {
      "buffer": 0,
      "byteLength": 14624,
      "byteOffset": 34360,
      "byteStride": 16,
      "name": "floatBufferViews",
      "target": 34962
    }
  ],
  "buffers": [
    {
      "byteLength": 48984,
      "uri": "scene.bin"
    }
  ],
  "images": [
    {
      "uri": "textures/color_baseColor.png"
    }
  ],
  "materials": [
    {
      "doubleSided": true,
      "emissiveFactor": [
        0,
        0,
        0
      ],
      "name": "color",
      "pbrMetallicRoughness": {
        "baseColorFactor": [
          1,
          1,
          1,
          1
        ],
        "baseColorTexture": {
          "index": 0,
          "texCoord": 0
        },
        "metallicFactor": 0,
        "roughnessFactor": 1
      }
    }
  ],
  "meshes": [
    {
      "name": "horse_0",
      "primitives": [
        {
          "attributes": {
            "NORMAL": 1,
            "POSITION": 0,
            "TANGENT": 2,
            "TEXCOORD_0": 3
          },
          "indices": 4,
          "material": 0,
          "mode": 4
        }
      ]
    }
  ],
  "nodes": [
    {
      "children": [
        1
      ],
      "name": "RootNode (gltf orientation matrix)",
      "rotation": [
        -0.70710678118654746,
        -0,
        -0,
        0.70710678118654757
      ]
    },
    {
      "children": [
        2
      ],
      "name": "RootNode (model correction matrix)"
    },
    {
      "children": [
        3,
        5,
        7
      ],
      "name": "Root"
    },
    {
      "children": [
        4
      ],
      "name": "horse"
    },
    {
      "mesh": 0,
      "name": "horse_0"
    },
    {
      "children": [
        6
      ],
      "matrix": [
        0.91750999999999994,
        -0.31198000000000009,
        0.24667,
        0,
        0.055570000000000008,
        0.71470000000000011,
        0.69722000000000017,
        0,
        -0.39382000000000011,
        -0.62600000000000011,
        0.67308000000000012,
        0,
        0.36720000000000003,
        -1.2939899999999998,
        3.5768599999999995,
        1
      ],
      "name": "Hemi"
    },
    {
      "name": "Hemi"
    },
    {
      "children": [
        8
      ],
      "matrix": [
        0.025360000000000008,
        -0.26163999999999998,
        -0.96483000000000008,
        0,
        -0.020750000000000005,
        0.9648000000000001,
        -0.26218000000000002,
        0,
        0.9994599999999999,
        0.026670000000000006,
        0.019030000000000002,
        0,
        0.36720000000000003,
        -1.2939899999999998,
        3.5768599999999995,
        1
      ],
      "name": "Hemi.001"
    },
    {
      "name": "Hemi.001"
    }
  ],
  "samplers": [
    {
      "magFilter": 9729,
      "minFilter": 9987,
      "wrapS": 10497,
      "wrapT": 10497
    }
  ],
  "scene": 0,
  "scenes": [
    {
      "name": "OSG_Scene",
      "nodes": [
        0
      ]
    }
  ],
  "textures": [
    {
      "sampler": 0,
      "source": 0
    }
  ]
}

